<?xml version="1.0" encoding="utf-8"?>
<!-- Generator: Adobe Illustrator 21.1.0, SVG Export Plug-In . SVG Version: 6.00 Build 0)  -->
<svg version="1.1" id="Layer_1" xmlns="http://www.w3.org/2000/svg" xmlns:xlink="http://www.w3.org/1999/xlink" x="0px" y="0px"
	 viewBox="0 0 100 100" style="enable-background:new 0 0 100 100;" xml:space="preserve">
<style type="text/css">
	.st0{fill:#009444;}
</style>
<path class="st0" d="M49.3,8.7C26.4,8.7,7.9,27.2,7.9,50.1c0,22.9,18.5,41.4,41.4,41.4c22.9,0,41.4-18.5,41.4-41.4
	C90.7,27.2,72.2,8.7,49.3,8.7z M49.3,88.7c-21.3,0-38.6-17.3-38.6-38.6S28,11.5,49.3,11.5s38.6,17.3,38.6,38.6S70.6,88.7,49.3,88.7z
	"/>
<path class="st0" d="M42.1,67L29.5,55.4c-1.3-1.2-1.4-3.3-0.2-4.6L31,49c1.2-1.3,3.3-1.4,4.6-0.2l5.6,5.1c1.4,1.3,3.5,1.1,4.7-0.3
	l16.5-20.2c1.1-1.4,3.2-1.6,4.6-0.5l1.9,1.6c1.4,1.1,1.6,3.2,0.5,4.6L46.9,66.7C45.7,68.2,43.5,68.3,42.1,67z"/>
<path class="st0" d="M4.1,55.5C3.4,52.4,3,49.2,3,45.9c0-20,14.4-36.6,33.4-40.1l-1.1-2.8C15.2,6.9,0,24.6,0,45.9
	c0,3.3,0.4,6.5,1.1,9.5H4.1z"/>
<path class="st0" d="M95.9,44c0.7,3.1,1.1,6.3,1.1,9.5c0,20-14.4,36.6-33.4,40.1l1.1,2.8c20.1-4,35.3-21.7,35.3-43
	c0-3.3-0.4-6.5-1.1-9.5H95.9z"/>
</svg>
